<?xml version="1.0" standalone="no"?>
<!DOCTYPE svg PUBLIC "-//W3C//DTD SVG 20010904//EN"
 "http://www.w3.org/TR/2001/REC-SVG-20010904/DTD/svg10.dtd">
<svg version="1.0" xmlns="http://www.w3.org/2000/svg"
 width="512.000000pt" height="512.000000pt" viewBox="0 0 512.000000 512.000000"
 preserveAspectRatio="xMidYMid meet">
<metadata>
Created by potrace 1.14, written by Peter Selinger 2001-2017
</metadata>
<g transform="translate(0.000000,512.000000) scale(0.100000,-0.100000)"
fill="#000000" stroke="none">
<path d="M33 5044 c8 -59 27 -137 37 -156 6 -10 10 -25 10 -33 0 -14 32 -116
50 -160 4 -11 16 -42 25 -70 17 -47 39 -101 71 -172 8 -17 14 -36 14 -42 0 -6
4 -11 9 -11 5 0 12 -13 16 -30 4 -16 10 -30 15 -30 5 0 11 -13 15 -30 4 -16
11 -30 16 -30 5 0 9 -6 9 -13 0 -22 206 -331 272 -408 13 -15 37 -44 53 -64
39 -50 144 -156 222 -225 35 -30 63 -60 63 -66 0 -7 -23 -36 -51 -65 -28 -30
-56 -68 -63 -84 -7 -17 -19 -38 -27 -46 -20 -21 -34 -46 -64 -109 -49 -103
-60 -125 -65 -130 -20 -19 -61 -126 -71 -183 -6 -37 -15 -69 -19 -72 -5 -3
-12 -26 -16 -50 -3 -25 -10 -48 -15 -51 -5 -3 -9 -16 -9 -30 0 -35 16 -21 24
20 4 20 13 48 21 63 8 15 15 33 15 39 0 30 166 332 199 364 9 8 32 38 51 65
36 53 56 77 131 158 l46 50 29 -26 c16 -15 32 -27 35 -27 3 0 17 -9 30 -21 13
-11 62 -46 109 -77 47 -30 87 -58 90 -62 21 -27 458 -260 488 -260 6 0 12 -3
14 -8 4 -9 131 -72 145 -72 10 0 59 -21 95 -41 10 -5 23 -9 30 -9 7 0 24 -6
38 -13 14 -7 59 -24 100 -36 41 -13 84 -27 95 -32 49 -21 252 -62 277 -55 9 2
42 -5 74 -15 31 -11 63 -19 71 -19 22 0 15 15 -17 33 -16 10 -30 26 -30 35 0
15 11 17 100 14 55 -2 100 0 100 5 0 4 -20 16 -43 27 -23 10 -55 25 -71 32
-15 7 -43 16 -62 20 -19 3 -36 10 -39 14 -3 5 -23 11 -46 15 -22 4 -53 13 -67
21 -15 8 -34 14 -43 14 -9 0 -18 3 -22 6 -6 7 -118 48 -174 65 -18 5 -45 16
-60 24 -15 8 -33 15 -39 15 -7 0 -25 7 -40 15 -16 8 -37 15 -46 15 -9 0 -19 4
-22 9 -3 4 -24 11 -47 14 -23 3 -45 9 -48 14 -7 9 -71 38 -111 49 -14 4 -27 9
-30 13 -6 7 -29 20 -245 131 -201 103 -235 123 -235 133 0 4 -6 7 -13 7 -14 0
-150 89 -155 102 -2 4 -9 8 -15 8 -7 1 -25 11 -40 24 l-28 23 94 69 c52 38
116 83 142 99 66 41 157 94 175 102 77 32 219 96 250 112 9 5 30 12 49 16 18
4 44 13 59 21 15 8 35 14 45 14 9 0 25 4 35 9 33 17 213 71 236 71 12 0 26 3
30 8 14 13 291 59 446 72 58 5 152 14 210 20 135 13 417 13 540 0 52 -5 142
-15 200 -20 238 -24 490 -69 669 -119 41 -12 83 -21 93 -21 10 0 26 -4 36 -9
9 -5 58 -19 109 -31 51 -11 105 -27 120 -35 15 -8 37 -15 48 -15 18 1 17 3 -8
23 -15 13 -27 26 -27 30 0 12 29 8 59 -8 16 -8 39 -16 53 -19 13 -2 44 -13 68
-24 80 -35 105 -44 95 -34 -28 27 -159 107 -235 143 -115 55 -116 56 -190 79
-36 12 -74 25 -85 30 -43 19 -267 75 -400 101 -27 5 -72 14 -100 20 -27 5 -99
14 -160 19 -60 5 -135 14 -165 21 -65 13 -91 15 -360 24 -262 9 -429 -5 -842
-74 -56 -9 -155 -31 -228 -51 -115 -31 -187 -52 -201 -60 -9 -5 -33 -12 -53
-15 -20 -4 -39 -11 -42 -16 -3 -5 -12 -9 -21 -9 -16 0 -42 -11 -180 -76 -50
-24 -96 -44 -102 -44 -6 0 -11 -4 -11 -10 0 -5 -7 -10 -16 -10 -9 0 -42 -16
-74 -35 -32 -19 -63 -35 -69 -35 -6 0 -11 -4 -11 -10 0 -5 -6 -10 -14 -10 -8
0 -21 -6 -28 -13 -7 -7 -31 -24 -53 -37 -38 -24 -49 -31 -105 -81 -14 -12 -36
-29 -50 -38 -30 -19 -36 -23 -79 -60 -27 -22 -38 -26 -47 -17 -8 6 -19 16 -26
21 -61 47 -114 91 -116 97 -2 5 -29 32 -60 60 -88 83 -181 180 -210 218 -15
19 -39 48 -54 64 -16 17 -28 33 -28 37 0 4 -6 14 -13 21 -18 18 -78 120 -122
206 -20 39 -40 72 -45 72 -8 0 -140 174 -140 185 0 18 -45 102 -60 112 -23 17
-63 86 -84 148 -10 28 -21 57 -26 66 -4 9 -11 41 -15 73 -4 31 -12 59 -17 62
-7 4 -8 -8 -5 -32z"/>
<path d="M4460 3703 c-72 -29 -56 -153 20 -153 51 0 82 58 61 113 -8 21 -51
52 -64 46 -1 0 -9 -3 -17 -6z"/>
<path d="M500 2585 c0 -8 5 -15 10 -15 6 0 10 7 10 15 0 8 -4 15 -10 15 -5 0
-10 -7 -10 -15z"/>
<path d="M478 2484 c-5 -4 -8 -19 -8 -33 0 -18 3 -22 11 -14 6 6 9 21 7 33 -1
12 -6 18 -10 14z"/>
<path d="M4445 2271 c-11 -4 -45 -11 -75 -15 -140 -18 -258 -82 -315 -171 -24
-37 -27 -132 -5 -159 40 -51 91 -93 136 -114 27 -13 56 -27 65 -32 9 -5 34
-12 55 -16 22 -3 44 -10 49 -14 6 -5 33 -11 60 -15 28 -4 55 -11 60 -15 6 -4
33 -11 60 -14 62 -9 220 -63 248 -85 55 -44 67 -63 67 -111 0 -40 -5 -52 -36
-83 -21 -20 -46 -39 -58 -42 -12 -4 -30 -10 -41 -14 -11 -5 -32 -13 -48 -20
-41 -16 -230 -24 -332 -13 -49 5 -124 19 -165 30 -112 32 -121 30 -149 -28
-13 -28 -22 -52 -20 -54 6 -5 94 -26 154 -36 135 -22 259 -32 345 -27 122 6
282 27 294 38 6 5 19 9 31 9 35 0 157 68 197 110 21 21 40 50 44 64 3 15 10
29 15 32 12 7 12 81 0 89 -5 3 -12 18 -16 33 -3 15 -14 36 -23 47 -19 23 -106
85 -119 85 -4 0 -20 6 -35 14 -15 8 -41 17 -59 21 -19 4 -40 11 -49 15 -21 11
-193 50 -218 50 -11 0 -23 4 -26 9 -3 4 -24 11 -47 15 -55 9 -146 53 -186 90
-27 25 -33 37 -33 72 0 64 55 110 165 136 107 25 451 8 492 -24 18 -14 29 -3
57 51 l24 49 -21 11 c-41 20 -172 34 -347 37 -96 2 -184 0 -195 -5z"/>
<path d="M2780 2260 c-69 -4 -126 -8 -127 -9 -2 0 -3 -228 -3 -506 l0 -506
118 3 117 3 3 204 2 203 98 -6 c99 -7 276 4 392 25 202 35 337 117 373 226 23
71 21 104 -9 160 -54 103 -146 154 -344 194 -63 12 -470 18 -620 9z m510 -110
c135 -21 221 -79 236 -156 7 -37 -9 -108 -29 -133 -72 -88 -368 -142 -574
-105 l-33 6 0 194 c0 216 -7 194 70 208 43 7 251 -1 330 -14z"/>
<path d="M30 2258 c0 -2 0 -230 0 -508 l-1 -505 115 -3 116 -3 2 233 3 233
335 2 335 2 3 50 3 51 -338 2 -338 3 -3 168 -2 167 370 0 370 0 0 55 0 55
-485 0 c-267 0 -485 -1 -485 -2z"/>
<path d="M1340 1750 l0 -511 113 3 112 3 2 224 c1 172 5 226 15 233 7 4 158 8
336 7 177 0 326 2 330 5 4 2 6 25 4 50 l-4 46 -336 2 -337 3 -3 168 -2 167
370 0 370 0 0 55 0 55 -485 0 -485 0 0 -510z"/>
<path d="M28 1155 c-5 -5 -8 -18 -8 -30 l0 -22 332 -6 c182 -4 1309 -7 2505
-7 l2173 0 0 30 0 30 -1727 0 c-951 0 -2074 3 -2498 6 -424 4 -773 3 -777 -1z"/>
<path d="M222 989 c-17 -27 -5 -40 14 -15 8 11 14 23 14 28 0 15 -15 8 -28
-13z"/>
<path d="M512 998 c-13 -13 -16 -38 -4 -38 4 0 13 9 19 20 14 22 2 35 -15 18z"/>
<path d="M4036 989 c-46 -36 -31 -106 28 -129 22 -8 27 -15 24 -37 -4 -36 -22
-39 -36 -8 -16 35 -48 30 -44 -5 6 -42 32 -63 71 -56 43 7 51 19 51 78 0 50
-15 73 -57 89 -25 9 -30 24 -11 35 6 4 16 0 23 -9 7 -10 20 -17 30 -17 35 0
-5 79 -41 80 -6 0 -23 -9 -38 -21z"/>
<path d="M37 993 c-11 -10 -8 -231 2 -237 24 -15 41 7 41 54 0 46 2 49 28 52
16 2 27 9 27 18 0 9 -11 16 -27 18 -22 3 -28 9 -28 28 0 20 5 24 30 24 25 0
30 4 30 25 0 23 -3 25 -48 25 -27 0 -52 -3 -55 -7z"/>
<path d="M387 994 c-4 -4 -7 -20 -7 -36 0 -23 -4 -28 -24 -28 -49 0 -70 -73
-41 -143 14 -34 16 -35 62 -32 l48 3 0 118 c0 99 -3 119 -15 122 -9 1 -19 0
-23 -4z m-9 -146 c-4 -59 -28 -63 -28 -4 0 35 4 46 16 46 12 0 14 -9 12 -42z"/>
<path d="M937 993 c-14 -13 -6 -33 13 -33 13 0 20 7 20 20 0 19 -20 27 -33 13z"/>
<path d="M1370 882 c0 -65 3 -121 6 -125 3 -3 12 -3 20 0 9 3 14 21 14 53 0
46 2 49 27 52 17 2 29 10 31 21 3 13 -3 17 -27 17 -26 0 -31 4 -31 25 0 21 5
25 30 25 25 0 30 4 30 25 0 23 -3 25 -50 25 l-50 0 0 -118z"/>
<path d="M2177 993 c-14 -13 -7 -33 11 -33 26 0 34 11 21 27 -13 14 -22 16
-32 6z"/>
<path d="M2667 994 c-4 -4 -7 -20 -7 -36 0 -24 -4 -28 -27 -28 -49 0 -70 -84
-38 -148 14 -28 19 -30 58 -27 l42 3 0 118 c0 109 -7 139 -28 118z m-9 -146
c-4 -59 -28 -63 -28 -4 0 35 4 46 16 46 12 0 14 -9 12 -42z"/>
<path d="M3080 882 c0 -65 3 -121 6 -124 3 -3 14 -4 25 -1 15 4 19 14 19 49 0
37 3 44 20 44 33 0 60 35 60 79 0 50 -27 71 -87 71 l-43 0 0 -118z m80 43 c0
-16 -6 -25 -15 -25 -9 0 -15 9 -15 25 0 16 6 25 15 25 9 0 15 -9 15 -25z"/>
<path d="M3270 985 c-7 -9 -10 -19 -6 -22 4 -4 11 -1 17 7 8 13 10 13 18 0 6
-8 13 -11 17 -7 7 7 -13 37 -26 37 -4 0 -13 -7 -20 -15z"/>
<path d="M3522 878 c3 -101 6 -123 18 -123 11 0 16 13 18 45 6 106 32 127 32
26 0 -48 4 -65 15 -70 22 -8 26 10 23 95 l-3 74 -30 0 c-27 0 -31 4 -35 35 -3
23 -11 36 -23 38 -16 3 -17 -6 -15 -120z"/>
<path d="M4642 987 c-14 -16 -6 -27 20 -27 13 0 18 6 16 17 -4 22 -22 27 -36
10z"/>
<path d="M863 983 c-7 -3 -13 -11 -13 -19 0 -8 -6 -23 -12 -34 -10 -16 -10
-24 0 -40 6 -11 12 -44 12 -74 0 -46 3 -56 20 -61 11 -3 24 -3 30 0 15 9 12
35 -5 41 -10 4 -15 20 -15 45 0 26 5 42 15 45 19 8 20 40 1 47 -8 3 -16 17
-18 30 -2 14 -8 22 -15 20z"/>
<path d="M4557 960 c-11 -30 -28 -36 -85 -31 -22 2 -23 0 -20 -84 2 -48 7 -85
13 -85 6 -1 11 12 13 27 4 52 22 101 38 107 26 10 34 -2 34 -49 0 -60 15 -95
40 -95 27 0 38 29 17 42 -24 13 -23 86 1 104 16 13 16 15 0 28 -10 7 -18 25
-18 40 0 35 -19 33 -33 -4z"/>
<path d="M180 911 c-16 -31 -13 -127 6 -145 20 -21 58 -20 79 0 23 23 2 48
-26 31 -16 -10 -21 -9 -29 3 -13 22 -3 30 41 30 33 0 39 3 39 20 0 12 -7 34
-15 50 -13 24 -22 30 -50 30 -24 0 -37 -6 -45 -19z m58 -34 c2 -10 -3 -17 -12
-17 -10 0 -16 9 -16 21 0 24 23 21 28 -4z"/>
<path d="M473 918 c-26 -34 -21 -141 9 -159 33 -21 86 5 75 36 -6 14 -10 15
-22 5 -18 -15 -45 -6 -45 15 0 11 11 15 39 15 22 0 42 4 45 9 3 5 0 26 -8 47
-11 34 -17 39 -48 42 -20 2 -39 -3 -45 -10z m55 -41 c2 -12 -3 -17 -17 -17
-12 0 -21 6 -21 13 0 31 32 34 38 4z"/>
<path d="M597 923 c-4 -3 -7 -41 -7 -84 0 -67 2 -77 19 -82 28 -7 31 -1 31 62
0 44 4 60 20 74 11 9 20 21 20 27 0 11 -73 14 -83 3z"/>
<path d="M703 914 c-8 -22 13 -42 29 -26 16 16 28 15 28 -2 0 -8 -12 -18 -28
-24 -15 -5 -33 -21 -41 -35 -12 -23 -12 -29 2 -50 13 -21 23 -24 64 -23 l48 2
3 73 c2 45 -2 78 -9 87 -16 20 -88 18 -96 -2z m58 -87 c-1 -4 -1 -14 -1 -22 0
-8 -7 -15 -15 -15 -15 0 -21 31 -8 44 8 8 25 3 24 -7z"/>
<path d="M930 846 c0 -63 4 -85 14 -89 23 -9 26 2 26 90 0 76 -2 83 -20 83
-18 0 -20 -7 -20 -84z"/>
<path d="M1017 912 c-25 -28 -23 -112 3 -140 28 -29 54 -28 79 4 25 32 28 100
5 132 -19 27 -64 29 -87 4z m63 -66 c0 -54 -22 -69 -40 -26 -13 32 0 70 25 70
11 0 15 -12 15 -44z"/>
<path d="M1146 923 c-10 -11 -7 -163 4 -164 33 -5 35 -2 40 60 7 90 30 96 30
8 0 -46 4 -66 14 -70 8 -3 17 -3 20 0 9 9 7 146 -2 160 -7 11 -95 16 -106 6z"/>
<path d="M1500 845 c0 -46 4 -86 8 -89 19 -11 34 15 37 65 3 33 10 58 20 65
29 22 18 42 -25 42 l-40 1 0 -84z"/>
<path d="M1610 911 c-12 -24 6 -33 32 -17 9 6 20 7 24 4 11 -12 -5 -38 -24
-38 -27 0 -42 -20 -42 -56 0 -41 15 -52 70 -49 l45 3 3 57 c2 32 -2 71 -9 87
-10 24 -17 28 -50 28 -28 0 -41 -5 -49 -19z m60 -96 c0 -16 -6 -25 -15 -25
-28 0 -18 40 13 49 1 1 2 -10 2 -24z"/>
<path d="M1752 844 c4 -99 21 -116 28 -27 3 34 9 65 13 69 15 15 27 -20 25
-69 -1 -26 3 -52 10 -59 18 -18 23 9 20 93 l-3 74 -48 2 -48 2 3 -85z"/>
<path d="M1897 912 c-11 -12 -17 -36 -17 -68 0 -40 6 -55 30 -84 34 -40 38
-57 13 -63 -12 -3 -9 -5 8 -6 34 -1 53 17 37 37 -10 11 -9 17 5 27 9 7 17 17
17 23 0 6 6 12 13 15 9 3 7 10 -6 23 -18 19 -19 18 -34 -3 -20 -30 -28 -29
-43 6 -9 23 -9 33 2 50 13 22 38 29 38 11 0 -13 27 -13 35 0 3 5 1 19 -5 30
-14 26 -70 27 -93 2z"/>
<path d="M2041 911 c-8 -15 -7 -20 6 -25 9 -4 21 -2 27 4 14 14 26 12 26 -4 0
-8 -10 -18 -22 -22 -87 -26 -73 -115 17 -109 l40 3 3 63 c5 97 -1 109 -48 109
-28 0 -42 -5 -49 -19z m59 -96 c0 -16 -6 -25 -15 -25 -15 0 -21 31 -8 43 13
14 23 6 23 -18z"/>
<path d="M2170 847 c0 -90 4 -101 29 -88 13 7 15 23 13 90 -3 72 -6 81 -23 81
-17 0 -19 -8 -19 -83z"/>
<path d="M2250 909 c-18 -32 -4 -66 30 -77 31 -11 42 -42 15 -42 -8 0 -15 5
-15 10 0 12 -27 13 -34 1 -9 -15 4 -40 25 -46 47 -15 85 24 74 76 -5 23 -14
31 -36 36 -16 3 -29 12 -29 20 0 11 7 13 30 8 23 -5 30 -3 30 8 0 32 -74 37
-90 6z"/>
<path d="M2386 905 c-24 -36 -21 -106 5 -134 17 -18 28 -22 52 -17 32 6 50 24
40 39 -3 4 -17 5 -33 2 -19 -4 -29 -2 -33 9 -8 20 1 26 40 26 31 0 33 2 33 34
0 19 -7 42 -16 50 -24 25 -69 20 -88 -9z m64 -25 c0 -11 -7 -20 -15 -20 -8 0
-15 9 -15 20 0 11 7 20 15 20 8 0 15 -9 15 -20z"/>
<path d="M2746 915 c-11 -12 -16 -34 -16 -75 0 -53 3 -61 26 -76 30 -20 77 -9
82 19 3 14 -3 17 -29 15 -25 -2 -34 1 -37 15 -3 14 4 17 37 17 22 0 42 4 45 8
3 5 -1 26 -9 48 -11 34 -17 39 -48 42 -22 2 -40 -3 -51 -13z m62 -38 c2 -12
-3 -17 -17 -17 -12 0 -21 6 -21 13 0 31 32 34 38 4z"/>
<path d="M2882 918 c-28 -28 -11 -67 41 -93 11 -5 22 -16 25 -22 5 -17 -30
-17 -46 -1 -9 9 -15 9 -24 0 -9 -9 -7 -16 7 -32 38 -42 95 -12 95 49 0 27 -5
34 -35 47 -40 16 -48 38 -11 28 33 -8 51 3 35 22 -14 17 -71 18 -87 2z"/>
<path d="M3241 899 c-31 -90 15 -173 78 -139 33 17 27 41 -11 38 -24 -2 -33 2
-36 15 -3 14 3 17 32 17 44 0 50 10 36 60 -10 38 -13 40 -49 40 -35 0 -40 -3
-50 -31z m67 -22 c2 -12 -3 -17 -17 -17 -12 0 -21 6 -21 13 0 31 32 34 38 4z"/>
<path d="M3387 910 c-25 -29 -23 -110 3 -138 12 -12 30 -22 40 -22 26 0 62 36
58 57 -5 25 -29 28 -35 4 -3 -12 -11 -21 -18 -21 -16 0 -29 52 -20 80 6 20 35
29 35 10 0 -13 27 -13 35 0 3 5 1 19 -5 30 -15 27 -69 27 -93 0z"/>
<path d="M3672 910 c-18 -30 -15 -116 5 -140 27 -31 93 -20 93 16 0 12 -6 15
-26 10 -25 -7 -54 7 -54 25 0 5 21 9 46 9 l47 0 -7 42 c-4 23 -12 46 -19 50
-24 15 -72 8 -85 -12z m66 -33 c2 -12 -3 -17 -17 -17 -12 0 -21 6 -21 13 0 31
32 34 38 4z"/>
<path d="M3804 906 c-9 -37 4 -63 36 -75 17 -5 30 -17 30 -25 0 -19 -21 -21
-38 -4 -16 16 -35 -3 -26 -25 8 -23 47 -32 73 -17 17 8 21 20 21 56 0 41 -2
45 -30 51 -16 3 -30 12 -30 19 0 10 9 12 31 7 27 -5 31 -3 27 13 -2 14 -13 20
-45 22 -38 3 -43 0 -49 -22z"/>
<path d="M4160 808 c0 -111 1 -118 20 -118 16 0 20 7 20 35 0 32 2 35 23 30
36 -10 52 18 52 92 0 73 -7 81 -72 80 l-43 0 0 -119z m75 37 c0 -21 -5 -40
-11 -42 -14 -5 -27 42 -19 68 11 33 30 15 30 -26z"/>
<path d="M4321 921 c-9 -6 -16 -32 -19 -69 -4 -51 -1 -63 17 -81 26 -26 55
-27 81 -1 26 26 28 120 4 144 -17 18 -61 21 -83 7z m57 -78 c-3 -53 -22 -68
-31 -25 -8 38 2 72 20 72 11 0 13 -11 11 -47z"/>
<path d="M4638 849 c-2 -67 0 -83 13 -90 25 -13 29 -2 29 88 0 75 -2 83 -19
83 -17 0 -20 -9 -23 -81z"/>
<path d="M4704 913 c2 -10 7 -34 11 -53 13 -71 28 -100 50 -100 22 0 22 -1 52
143 4 19 1 27 -9 27 -17 0 -38 -40 -39 -73 0 -13 -7 -3 -16 26 -12 34 -21 47
-35 47 -14 0 -18 -5 -14 -17z"/>
<path d="M4849 903 c-5 -16 -11 -33 -14 -40 -6 -19 15 -87 33 -100 22 -17 47
-16 66 3 25 24 19 36 -16 32 -24 -2 -33 1 -36 14 -2 13 5 17 35 20 37 3 38 4
35 37 -4 46 -18 61 -58 61 -28 0 -36 -5 -45 -27z m69 -26 c2 -12 -3 -17 -17
-17 -12 0 -21 6 -21 13 0 31 32 34 38 4z"/>
<path d="M4992 918 c-7 -7 -12 -25 -12 -41 0 -23 7 -31 34 -42 19 -8 37 -19
41 -25 10 -15 -23 -24 -40 -10 -16 13 -35 5 -35 -15 0 -34 67 -46 93 -17 34
37 13 94 -37 103 -11 2 -21 10 -24 17 -3 10 5 12 34 6 33 -6 36 -5 31 10 -4
10 -7 20 -7 22 0 10 -67 3 -78 -8z"/>
<path d="M2945 590 c-14 -6 -3 -9 40 -9 42 -1 56 2 45 9 -18 12 -58 12 -85 0z"/>
<path d="M4300 590 c-11 -7 3 -10 45 -10 42 0 56 3 45 10 -8 5 -28 10 -45 10
-16 0 -37 -5 -45 -10z"/>
<path d="M13 573 c-16 -6 -19 -543 -3 -543 6 0 10 97 10 270 l0 270 195 0 195
0 0 -35 c0 -19 5 -35 11 -35 6 0 9 16 7 38 l-3 37 -200 2 c-110 1 -206 -1
-212 -4z"/>
<path d="M729 548 c-7 -18 -14 -36 -17 -40 -2 -5 1 -8 6 -8 5 0 13 15 18 33 8
28 15 32 46 35 28 2 40 -2 52 -20 18 -25 22 -17 6 13 -8 14 -21 19 -54 19 -40
0 -45 -3 -57 -32z"/>
<path d="M1157 574 c-11 -11 -8 -357 3 -374 6 -10 10 50 10 178 l0 192 39 0
c27 0 41 -5 44 -15 4 -11 4 -10 3 2 -1 14 -12 19 -46 21 -25 2 -49 0 -53 -4z"/>
<path d="M1560 563 c0 -13 3 -14 12 -5 7 7 25 12 40 12 l28 0 0 -206 c0 -134
3 -203 10 -199 6 4 10 85 10 211 l0 204 -50 0 c-40 0 -50 -3 -50 -17z"/>
<path d="M2035 570 c-7 -12 -8 -531 0 -538 3 -3 5 117 5 266 l0 271 133 4 132
3 -132 2 c-76 1 -134 -2 -138 -8z"/>
<path d="M2878 573 c7 -3 16 -2 19 1 4 3 -2 6 -13 5 -11 0 -14 -3 -6 -6z"/>
<path d="M3424 565 c-4 -9 -4 -19 0 -22 3 -4 6 1 6 10 0 13 9 17 39 17 22 0
42 -5 44 -10 3 -6 4 -5 3 2 -4 20 -85 23 -92 3z"/>
<path d="M3863 573 l37 -4 0 -200 c0 -129 4 -199 10 -199 7 0 9 70 8 203 l-3
202 -45 1 c-39 1 -40 1 -7 -3z"/>
<path d="M4238 573 c7 -3 16 -2 19 1 4 3 -2 6 -13 5 -11 0 -14 -3 -6 -6z"/>
<path d="M4680 306 c0 -151 3 -277 8 -279 4 -3 6 118 4 269 l-3 274 203 3 203
2 -207 3 -208 2 0 -274z"/>
<path d="M2345 560 c3 -5 15 -10 26 -10 10 0 19 5 19 10 0 6 -12 10 -26 10
-14 0 -23 -4 -19 -10z"/>
<path d="M2800 539 c-45 -29 -110 -94 -110 -109 0 -5 24 15 53 44 28 29 67 59
85 67 17 7 32 17 32 21 0 13 -13 8 -60 -23z"/>
<path d="M3125 560 c3 -5 11 -10 16 -10 6 0 7 5 4 10 -3 6 -11 10 -16 10 -6 0
-7 -4 -4 -10z"/>
<path d="M4190 560 c0 -5 4 -10 9 -10 6 0 13 5 16 10 3 6 -1 10 -9 10 -9 0
-16 -4 -16 -10z"/>
<path d="M4480 560 c0 -5 6 -10 14 -10 8 0 16 -6 19 -12 2 -7 8 -10 12 -5 5 4
0 14 -11 22 -23 17 -34 19 -34 5z"/>
<path d="M2405 540 c3 -5 10 -10 16 -10 5 0 9 5 9 10 0 6 -7 10 -16 10 -8 0
-12 -4 -9 -10z"/>
<path d="M3160 540 c0 -5 6 -10 14 -10 8 0 35 -21 60 -46 25 -25 46 -41 46
-36 0 12 -98 102 -111 102 -5 0 -9 -4 -9 -10z"/>
<path d="M4160 540 c0 -5 5 -10 10 -10 6 0 10 5 10 10 0 6 -4 10 -10 10 -5 0
-10 -4 -10 -10z"/>
<path d="M1254 360 c0 -96 2 -136 3 -87 2 48 2 126 0 175 -1 48 -3 8 -3 -88z"/>
<path d="M2471 500 c19 -16 37 -30 42 -30 4 0 7 -7 7 -15 0 -8 4 -15 9 -15 5
0 14 -15 21 -32 7 -18 14 -28 17 -21 6 16 -39 84 -77 116 -43 37 -61 34 -19
-3z"/>
<path d="M3424 365 c0 -93 2 -133 3 -88 2 45 2 122 0 170 -1 48 -3 12 -3 -82z"/>
<path d="M4105 497 c-30 -32 -65 -82 -65 -92 0 -15 19 -2 23 18 4 12 25 41 47
65 22 23 37 42 33 42 -4 0 -21 -15 -38 -33z"/>
<path d="M4548 520 c15 -17 16 -30 1 -30 -6 0 -17 -7 -25 -15 -15 -14 -44 -11
-44 6 0 5 -4 9 -10 9 -18 0 -10 -17 14 -28 19 -8 30 -7 55 9 35 21 38 31 14
50 -15 11 -16 11 -5 -1z"/>
<path d="M850 513 c0 -5 8 -17 17 -28 14 -18 15 -18 9 -2 -3 10 -6 23 -6 28 0
5 -4 9 -10 9 -5 0 -10 -3 -10 -7z"/>
<path d="M2916 511 c-3 -4 30 -8 74 -8 44 0 77 4 74 8 -3 5 -36 9 -74 9 -38 0
-71 -4 -74 -9z"/>
<path d="M4276 511 c-3 -5 28 -9 69 -9 41 0 72 4 69 9 -3 5 -34 9 -69 9 -35 0
-66 -4 -69 -9z"/>
<path d="M5075 510 c-3 -5 -1 -10 4 -10 6 0 11 5 11 10 0 6 -2 10 -4 10 -3 0
-8 -4 -11 -10z"/>
<path d="M90 420 c0 -57 4 -80 13 -80 9 0 11 21 9 80 -2 44 -8 80 -13 80 -5 0
-9 -36 -9 -80z"/>
<path d="M2110 295 l0 -205 94 0 c58 0 97 4 102 11 4 8 -20 10 -82 8 l-89 -3
-3 197 c-1 120 -6 197 -12 197 -6 0 -10 -78 -10 -205z"/>
<path d="M2298 493 c6 -2 18 -2 25 0 6 3 1 5 -13 5 -14 0 -19 -2 -12 -5z"/>
<path d="M4770 489 c0 -5 5 -7 10 -4 6 3 10 8 10 11 0 2 -4 4 -10 4 -5 0 -10
-5 -10 -11z"/>
<path d="M684 453 c-10 -21 -22 -40 -25 -43 -4 -3 -10 -16 -14 -30 -4 -14 -11
-27 -15 -30 -4 -3 -11 -16 -14 -30 -7 -23 -6 -23 13 5 12 17 21 36 21 43 0 6
4 12 9 12 5 0 12 14 16 30 4 17 10 30 15 30 8 0 22 41 16 47 -1 2 -11 -14 -22
-34z"/>
<path d="M2350 480 c0 -5 8 -10 19 -10 10 0 33 -13 52 -29 35 -31 57 -34 23
-3 -46 42 -94 63 -94 42z"/>
<path d="M2835 472 c-28 -24 -65 -73 -65 -86 0 -6 8 0 18 14 29 43 56 70 69
70 7 0 13 5 13 10 0 14 -12 12 -35 -8z"/>
<path d="M3110 481 c0 -6 6 -11 13 -11 15 0 67 -47 67 -60 0 -6 4 -10 10 -10
5 0 1 13 -8 29 -14 26 -28 36 -74 59 -5 2 -8 -1 -8 -7z"/>
<path d="M4205 480 c-54 -48 -77 -78 -72 -93 2 -7 9 -1 17 13 7 14 29 40 49
57 20 18 32 33 26 32 -5 0 -14 -4 -20 -9z"/>
<path d="M791 443 c13 -16 26 -30 28 -33 2 -3 0 6 -4 20 -8 25 -22 40 -39 40
-5 0 1 -12 15 -27z"/>
<path d="M880 453 c0 -5 8 -17 17 -28 14 -18 15 -18 9 -2 -3 10 -6 23 -6 28 0
5 -4 9 -10 9 -5 0 -10 -3 -10 -7z"/>
<path d="M4773 420 c0 -25 2 -35 4 -22 2 12 2 32 0 45 -2 12 -4 2 -4 -23z"/>
<path d="M752 430 c-14 -23 -15 -30 -3 -30 8 0 24 41 18 47 -2 1 -8 -7 -15
-17z"/>
<path d="M3280 420 c0 -5 5 -10 10 -10 6 0 10 5 10 10 0 6 -4 10 -10 10 -5 0
-10 -4 -10 -10z"/>
<path d="M2670 395 c0 -8 5 -15 10 -15 6 0 10 7 10 15 0 8 -4 15 -10 15 -5 0
-10 -7 -10 -15z"/>
<path d="M820 391 c0 -6 4 -12 9 -16 5 -3 12 -19 16 -35 4 -17 11 -30 16 -30
12 0 12 17 0 25 -5 3 -12 19 -16 35 -6 27 -25 43 -25 21z"/>
<path d="M910 393 c0 -5 8 -17 17 -28 14 -18 15 -18 9 -2 -3 10 -6 23 -6 28 0
5 -4 9 -10 9 -5 0 -10 -3 -10 -7z"/>
<path d="M2460 390 c0 -5 5 -10 10 -10 6 0 10 5 10 10 0 6 -4 10 -10 10 -5 0
-10 -4 -10 -10z"/>
<path d="M3301 384 c0 -11 3 -14 6 -6 3 7 2 16 -1 19 -3 4 -6 -2 -5 -13z"/>
<path d="M4031 364 c0 -11 3 -14 6 -6 3 7 2 16 -1 19 -3 4 -6 -2 -5 -13z"/>
<path d="M2482 350 c0 -14 2 -19 5 -12 2 6 2 18 0 25 -3 6 -5 1 -5 -13z"/>
<path d="M2572 350 c0 -14 2 -19 5 -12 2 6 2 18 0 25 -3 6 -5 1 -5 -13z"/>
<path d="M2757 363 c-11 -10 -8 -121 3 -128 6 -4 10 20 10 64 0 71 -1 77 -13
64z"/>
<path d="M710 344 c0 -8 5 -12 10 -9 6 3 10 10 10 16 0 5 -4 9 -10 9 -5 0 -10
-7 -10 -16z"/>
<path d="M2663 300 c0 -36 2 -50 4 -32 2 17 2 47 0 65 -2 17 -4 3 -4 -33z"/>
<path d="M4770 350 c0 -6 7 -10 15 -10 8 0 15 2 15 4 0 2 -7 6 -15 10 -8 3
-15 1 -15 -4z"/>
<path d="M380 341 c0 -5 5 -13 10 -16 6 -3 10 -2 10 4 0 5 -4 13 -10 16 -5 3
-10 2 -10 -4z"/>
<path d="M3220 300 c0 -32 4 -49 10 -45 6 3 10 24 10 45 0 21 -4 42 -10 45 -6
4 -10 -13 -10 -45z"/>
<path d="M3310 298 c0 -38 3 -49 10 -38 13 20 13 77 0 85 -6 4 -10 -14 -10
-47z"/>
<path d="M5056 337 c3 -10 9 -15 12 -12 3 3 0 11 -7 18 -10 9 -11 8 -5 -6z"/>
<path d="M940 331 c0 -6 4 -12 9 -15 5 -3 12 -18 16 -33 3 -14 13 -36 21 -47
14 -20 15 -20 8 9 -4 17 -11 32 -15 35 -4 3 -11 18 -14 33 -7 25 -25 39 -25
18z"/>
<path d="M4112 300 c0 -14 2 -19 5 -12 2 6 2 18 0 25 -3 6 -5 1 -5 -13z"/>
<path d="M686 291 c-4 -7 -5 -15 -2 -18 9 -9 19 4 14 18 -4 11 -6 11 -12 0z"/>
<path d="M877 266 l6 -36 -101 0 c-88 0 -101 2 -104 18 -3 14 -5 13 -10 -5 -6
-23 -6 -23 113 -23 117 0 119 0 119 23 0 12 -7 30 -15 41 -13 17 -14 15 -8
-18z"/>
<path d="M5060 292 c0 -9 -41 -12 -145 -12 -109 0 -145 -3 -145 -12 0 -20 289
-12 297 8 3 8 3 18 -1 21 -3 4 -6 1 -6 -5z"/>
<path d="M243 282 l-153 -3 0 -94 0 -95 171 0 171 0 -4 -34 c-2 -19 0 -32 4
-30 4 3 8 20 8 39 0 43 -16 47 -189 44 l-136 -2 -3 76 -3 77 140 0 c88 0 142
4 146 11 4 6 5 11 4 12 -2 1 -73 1 -156 -1z"/>
<path d="M585 260 c-4 -16 -10 -30 -15 -30 -8 0 -22 -41 -16 -47 3 -3 56 95
56 103 0 2 -4 4 -9 4 -5 0 -12 -13 -16 -30z"/>
<path d="M2482 250 c0 -14 2 -19 5 -12 2 6 2 18 0 25 -3 6 -5 1 -5 -13z"/>
<path d="M2572 250 c0 -14 2 -19 5 -12 2 6 2 18 0 25 -3 6 -5 1 -5 -13z"/>
<path d="M4031 224 c0 -11 3 -14 6 -6 3 7 2 16 -1 19 -3 4 -6 -2 -5 -13z"/>
<path d="M4124 217 c7 -31 50 -83 81 -99 11 -6 5 5 -15 25 -19 20 -43 51 -53
69 -18 32 -19 32 -13 5z"/>
<path d="M3301 214 c0 -11 3 -14 6 -6 3 7 2 16 -1 19 -3 4 -6 -2 -5 -13z"/>
<path d="M3512 205 c0 -16 2 -22 5 -12 2 9 2 23 0 30 -3 6 -5 -1 -5 -18z"/>
<path d="M4773 180 c0 -30 2 -43 4 -28 2 16 2 40 0 56 -2 15 -4 2 -4 -28z"/>
<path d="M2455 201 c-3 -10 -16 -26 -28 -35 -12 -9 -31 -23 -42 -31 -11 -8
-15 -15 -8 -15 13 0 103 81 103 93 0 15 -19 6 -25 -12z"/>
<path d="M2548 190 c-9 -19 -24 -43 -34 -53 -39 -37 -68 -57 -81 -57 -7 0 -13
-4 -13 -10 0 -14 7 -13 38 7 55 36 117 113 109 136 -2 7 -11 -4 -19 -23z"/>
<path d="M2670 210 c0 -8 8 -24 16 -35 16 -19 16 -19 9 5 -9 31 -25 50 -25 30z"/>
<path d="M2771 215 c-1 -19 58 -95 73 -95 14 0 4 19 -11 24 -10 3 -28 23 -40
44 -12 20 -22 33 -22 27z"/>
<path d="M1000 203 c0 -5 8 -17 17 -28 14 -18 15 -18 9 -2 -3 10 -6 23 -6 28
0 5 -4 9 -10 9 -5 0 -10 -3 -10 -7z"/>
<path d="M3815 197 c-4 -10 -5 -21 -1 -24 10 -10 18 4 13 24 -4 17 -4 17 -12
0z"/>
<path d="M1551 184 c0 -11 3 -14 6 -6 3 7 2 16 -1 19 -3 4 -6 -2 -5 -13z"/>
<path d="M3182 175 c-6 -14 -15 -25 -20 -25 -5 0 -19 -9 -32 -20 -28 -25 -18
-26 21 -3 16 10 32 25 35 35 3 10 10 18 15 18 5 0 9 5 9 10 0 19 -17 10 -28
-15z"/>
<path d="M4040 194 c0 -3 14 -26 31 -52 29 -45 89 -93 89 -72 0 6 -5 10 -10
10 -17 0 -80 70 -86 96 -5 20 -24 35 -24 18z"/>
<path d="M3279 168 c-15 -28 -63 -77 -98 -100 -14 -10 -21 -18 -15 -18 32 0
147 120 131 137 -3 2 -11 -6 -18 -19z"/>
<path d="M530 161 c0 -5 -3 -18 -6 -28 -6 -16 -5 -16 9 2 19 23 21 35 7 35 -5
0 -10 -4 -10 -9z"/>
<path d="M630 160 c-8 -5 -12 -10 -10 -12 13 -8 320 4 320 12 0 13 -290 13
-310 0z"/>
<path d="M1170 155 c0 -8 5 -15 10 -15 6 0 10 7 10 15 0 8 -4 15 -10 15 -5 0
-10 -7 -10 -15z"/>
<path d="M1260 160 c0 -5 5 -10 10 -10 6 0 10 5 10 10 0 6 -4 10 -10 10 -5 0
-10 -4 -10 -10z"/>
<path d="M3430 155 c0 -8 5 -15 10 -15 6 0 10 7 10 15 0 8 -4 15 -10 15 -5 0
-10 -7 -10 -15z"/>
<path d="M3522 158 c6 -18 77 -72 84 -65 4 3 -5 11 -19 18 -13 6 -31 22 -38
35 -13 24 -34 34 -27 12z"/>
<path d="M1525 140 c-3 -11 -10 -20 -14 -20 -12 0 -47 -29 -35 -30 12 0 74 53
74 63 0 16 -19 5 -25 -13z"/>
<path d="M3786 135 c-10 -14 -25 -25 -32 -25 -8 0 -14 -4 -14 -10 0 -5 3 -10
8 -10 11 0 62 49 62 60 0 15 -3 12 -24 -15z"/>
<path d="M1030 147 c0 -2 10 -23 22 -48 12 -25 23 -38 26 -30 2 7 0 16 -6 20
-6 3 -14 19 -17 34 -4 15 -11 27 -16 27 -5 0 -9 -1 -9 -3z"/>
<path d="M1630 142 c0 -5 -19 -28 -42 -52 -24 -23 -33 -38 -22 -31 36 18 91
91 69 91 -3 0 -5 -4 -5 -8z"/>
<path d="M2722 120 c12 -16 25 -30 29 -30 4 0 15 -7 24 -16 9 -9 19 -13 22
-10 4 4 -4 14 -18 23 -13 10 -34 28 -45 40 -31 33 -38 28 -12 -7z"/>
<path d="M3890 142 c0 -14 -80 -92 -95 -92 -8 0 -15 -4 -15 -10 0 -21 22 -8
70 39 44 43 61 71 45 71 -3 0 -5 -4 -5 -8z"/>
<path d="M4480 130 c-13 -11 -18 -20 -12 -20 6 0 17 6 24 13 7 8 20 16 28 20
13 4 12 6 -1 6 -9 1 -26 -8 -39 -19z"/>
<path d="M940 131 c0 -6 4 -12 9 -15 5 -3 12 -18 15 -32 4 -15 14 -33 21 -41
20 -20 19 -10 -5 34 -11 21 -20 43 -20 50 0 7 -4 13 -10 13 -5 0 -10 -4 -10
-9z"/>
<path d="M1280 133 c0 -10 42 -43 55 -43 3 0 5 5 5 10 0 6 -5 10 -12 10 -6 0
-20 7 -30 17 -10 9 -18 11 -18 6z"/>
<path d="M4540 130 c0 -5 5 -10 10 -10 6 0 10 5 10 10 0 6 -4 10 -10 10 -5 0
-10 -4 -10 -10z"/>
<path d="M1190 122 c0 -14 58 -72 72 -72 6 0 1 9 -11 19 -12 11 -31 30 -42 42
-10 12 -19 17 -19 11z"/>
<path d="M3450 122 c0 -25 92 -97 113 -89 7 3 -1 10 -17 16 -16 7 -44 28 -63
47 -18 20 -33 31 -33 26z"/>
<path d="M4570 106 c0 -9 -4 -16 -8 -16 -5 0 -19 -9 -32 -20 -13 -11 -18 -20
-12 -20 21 0 76 56 64 64 -7 4 -12 1 -12 -8z"/>
<path d="M4770 103 c0 -10 40 -13 165 -13 171 0 170 0 166 -42 -1 -10 3 -18 8
-18 19 0 13 57 -6 66 -10 5 -89 11 -176 14 -122 4 -157 2 -157 -7z"/>
<path d="M500 101 c0 -5 -3 -18 -6 -28 -6 -16 -5 -16 9 2 19 23 21 35 7 35 -5
0 -10 -4 -10 -9z"/>
<path d="M2885 100 c3 -5 11 -10 16 -10 6 0 7 5 4 10 -3 6 -11 10 -16 10 -6 0
-7 -4 -4 -10z"/>
<path d="M3075 100 c-3 -5 1 -10 9 -10 9 0 16 5 16 10 0 6 -4 10 -9 10 -6 0
-13 -4 -16 -10z"/>
<path d="M4235 100 c3 -5 13 -10 21 -10 8 0 12 5 9 10 -3 6 -13 10 -21 10 -8
0 -12 -4 -9 -10z"/>
<path d="M4425 100 c-3 -5 1 -10 9 -10 9 0 16 5 16 10 0 6 -4 10 -9 10 -6 0
-13 -4 -16 -10z"/>
<path d="M590 84 c0 -8 5 -12 10 -9 6 3 10 10 10 16 0 5 -4 9 -10 9 -5 0 -10
-7 -10 -16z"/>
<path d="M1383 83 c15 -2 39 -2 55 0 15 2 2 4 -28 4 -30 0 -43 -2 -27 -4z"/>
<path d="M2958 83 c17 -2 47 -2 65 0 17 2 3 4 -33 4 -36 0 -50 -2 -32 -4z"/>
<path d="M3643 83 c15 -2 39 -2 55 0 15 2 2 4 -28 4 -30 0 -43 -2 -27 -4z"/>
<path d="M4307 83 c18 -2 50 -2 70 0 21 2 7 4 -32 4 -38 0 -55 -2 -38 -4z"/>
<path d="M566 39 c-11 -11 -15 -19 -9 -19 12 0 38 28 32 34 -2 2 -13 -5 -23
-15z"/>
<path d="M2825 46 c11 -8 27 -16 35 -16 20 0 1 16 -30 25 -24 7 -24 7 -5 -9z"/>
<path d="M470 41 c0 -6 5 -13 10 -16 6 -3 10 1 10 9 0 9 -4 16 -10 16 -5 0
-10 -4 -10 -9z"/>
<path d="M1081 34 c0 -11 3 -14 6 -6 3 7 2 16 -1 19 -3 4 -6 -2 -5 -13z"/>
<path d="M1280 40 c0 -5 5 -10 10 -10 6 0 10 5 10 10 0 6 -4 10 -10 10 -5 0
-10 -4 -10 -10z"/>
<path d="M1515 40 c-3 -5 -2 -10 4 -10 5 0 13 5 16 10 3 6 2 10 -4 10 -5 0
-13 -4 -16 -10z"/>
<path d="M2325 40 c-3 -5 3 -10 14 -10 11 0 23 5 26 10 3 6 -3 10 -14 10 -11
0 -23 -4 -26 -10z"/>
<path d="M3115 40 c-3 -5 1 -10 9 -10 8 0 18 5 21 10 3 6 -1 10 -9 10 -8 0
-18 -4 -21 -10z"/>
<path d="M4195 40 c3 -5 10 -10 16 -10 5 0 9 5 9 10 0 6 -7 10 -16 10 -8 0
-12 -4 -9 -10z"/>
<path d="M4470 40 c0 -5 4 -10 9 -10 6 0 13 5 16 10 3 6 -1 10 -9 10 -9 0 -16
-4 -16 -10z"/>
<path d="M1478 23 c7 -3 16 -2 19 1 4 3 -2 6 -13 5 -11 0 -14 -3 -6 -6z"/>
<path d="M3078 23 c7 -3 16 -2 19 1 4 3 -2 6 -13 5 -11 0 -14 -3 -6 -6z"/>
<path d="M4248 23 c7 -3 16 -2 19 1 4 3 -2 6 -13 5 -11 0 -14 -3 -6 -6z"/>
<path d="M1375 10 c-4 -6 8 -10 30 -10 22 0 34 4 30 10 -8 13 -52 13 -60 0z"/>
<path d="M2955 10 c-4 -6 10 -10 35 -10 25 0 39 4 35 10 -3 6 -19 10 -35 10
-16 0 -32 -4 -35 -10z"/>
<path d="M3645 10 c-4 -6 9 -10 32 -10 28 0 34 3 23 10 -20 13 -47 13 -55 0z"/>
<path d="M4310 10 c-11 -7 -2 -10 33 -10 30 0 46 4 42 10 -8 13 -55 13 -75 0z"/>
</g>
</svg>
